<?xml version="1.0" encoding="UTF-8"?>
<!DOCTYPE svg PUBLIC "-//W3C//DTD SVG 1.1//EN" "http://www.w3.org/Graphics/SVG/1.1/DTD/svg11.dtd">
<!-- Creator: CorelDRAW 2018 (64-Bit) -->
<svg xmlns="http://www.w3.org/2000/svg" xml:space="preserve" width="146.156mm" height="46.6271mm" version="1.1" style="shape-rendering:geometricPrecision; text-rendering:geometricPrecision; image-rendering:optimizeQuality; fill-rule:evenodd; clip-rule:evenodd"
viewBox="0 0 56710.37 18091.87"
 xmlns:xlink="http://www.w3.org/1999/xlink">
 <defs>
  <style type="text/css">
   <![CDATA[
    .fil0 {fill:#606263}
    .fil1 {fill:#3B6C71}
   ]]>
  </style>
 </defs>
 <g id="Layer_x0020_1">
  <metadata id="CorelCorpID_0Corel-Layer"/>
  <path class="fil0" d="M34591.02 11815.78c33.95,22.62 181.2,109.46 211.39,128.35 151.01,109.46 181.2,200.06 181.2,294.42 0,113.26 -75.51,173.67 -154.78,173.67 -120.79,0 -192.53,-101.93 -241.61,-211.43 -75.51,-147.21 -169.87,-335.98 -400.16,-335.98 -128.35,0 -328.41,86.84 -328.41,328.45 0,294.46 256.71,713.48 924.9,713.48 358.6,0 951.29,-132.12 951.29,-830.5 0,-528.51 -351.07,-724.81 -687.05,-913.57 -358.64,-207.63 -441.67,-256.71 -441.67,-422.82 0,-113.26 56.61,-188.77 147.21,-188.77 120.83,0 192.53,120.83 249.18,215.19 71.7,132.12 135.88,241.61 324.65,241.61 188.73,0 328.41,-128.35 328.41,-309.56 0,-162.34 -169.87,-592.69 -883.35,-592.69 -479.47,0 -883.39,241.61 -883.39,804.08 0,351.11 196.3,596.49 490.76,777.69l211.43 128.35zm-1208.04 -79.31c75.51,0 117.02,-11.29 117.02,-101.89l0 -320.89c0,-90.6 -52.85,-98.17 -124.55,-98.17l-547.41 0 0 -509.65 671.96 0c71.74,0 113.26,-11.29 113.26,-101.89l0 -336.02c3.76,-90.6 -45.28,-94.36 -113.26,-94.36l-1340.15 0c-90.6,0 -120.79,30.19 -124.55,117.02l0 2434.93c0,86.84 30.19,113.26 120.79,113.26l1347.72 0c83.03,0 109.46,-22.66 109.46,-101.93l0 -339.74c0,-90.6 -41.52,-105.69 -109.46,-105.69l-675.76 0 0 -554.97 554.93 0zm-2249.93 -872.02c64.18,94.36 139.68,143.45 268,143.45 207.66,0 336.02,-135.92 336.02,-309.56 0,-222.72 -249.18,-592.69 -856.96,-592.69 -562.5,0 -1181.61,437.91 -1181.61,1389.24 0,683.29 298.23,1411.86 1185.38,1411.86 596.49,0 849.4,-407.68 849.4,-611.55 0,-132.12 -90.6,-211.43 -196.3,-211.43 -56.61,0 -75.51,11.33 -162.34,83.07 -67.94,52.85 -147.21,117.02 -283.13,117.02 -113.22,0 -245.38,-52.85 -354.84,-192.53 -147.25,-192.53 -196.3,-494.52 -196.3,-830.5 0,-336.02 79.27,-687.09 290.66,-687.09 94.4,0 151.01,64.18 211.43,154.78 33.95,49.08 56.61,90.6 90.6,135.92zm-1755.44 -592.69c0,-64.18 -11.33,-101.93 -98.13,-98.17l-607.82 0c-67.94,0 -101.93,11.33 -101.93,98.17l0 2457.59c0,94.36 45.32,109.46 105.73,109.46l596.45 0c37.75,0 105.69,0 105.69,-105.69l0 -2461.35zm-2310.34 7.53c-22.66,-90.6 -45.32,-105.69 -135.92,-105.69l-619.11 0c-30.19,0 -90.6,-3.76 -90.6,56.65 0,15.09 3.76,30.19 15.09,71.7l762.56 2450.02c26.42,79.27 45.32,86.84 124.59,86.84l313.32 0c90.6,0 101.93,-22.66 132.16,-113.26l758.76 -2400.94c11.33,-41.52 18.9,-60.41 18.9,-79.27 0,-60.41 -52.85,-75.51 -101.93,-71.74l-400.16 0c-79.27,0 -101.93,15.09 -124.59,90.6l-358.64 1272.21 -294.42 -1257.12zm-2042.34 317.12c268.04,-15.09 369.97,109.46 369.97,475.66 0,105.69 0,430.34 -369.97,407.72l0 -883.39zm-777.65 2140.47c0,71.74 18.86,101.93 105.69,101.93l558.7 0c71.74,0 113.26,-11.33 113.26,-105.69l0 -841.87c3.76,-52.85 3.76,-60.37 22.66,-60.37 15.09,0 26.42,18.86 33.95,37.75l400.2 868.25c37.71,86.84 64.18,101.93 162.31,101.93l604.02 0c49.08,0 94.36,-15.09 94.36,-71.74 0,-22.62 -7.53,-41.52 -33.95,-86.8l-573.83 -1030.6c105.69,-60.41 437.91,-249.18 437.91,-702.19 0,-94.36 -11.33,-211.39 -64.18,-332.22 -215.19,-475.62 -819.17,-479.43 -1113.63,-479.43 -256.71,0 -570.07,26.42 -668.2,56.65 -75.51,22.62 -75.51,60.37 -79.27,143.45l0 2400.94zm-619.15 -1000.41c75.51,0 117.02,-11.29 117.02,-101.89l0 -320.89c0,-90.6 -52.85,-98.17 -124.55,-98.17l-547.41 0 0 -509.65 671.96 0c71.74,0 113.26,-11.29 113.26,-101.89l0 -336.02c3.76,-90.6 -45.28,-94.36 -113.26,-94.36l-1340.15 0c-90.6,0 -120.79,30.19 -124.55,117.02l0 2434.93c0,86.84 30.19,113.26 120.79,113.26l1347.72 0c83.03,0 109.46,-22.66 109.46,-101.93l0 -339.74c0,-90.6 -41.52,-105.69 -109.46,-105.69l-675.76 0 0 -554.97 554.93 0zm-2804.86 79.31c33.95,22.62 181.2,109.46 211.39,128.35 151.01,109.46 181.2,200.06 181.2,294.42 0,113.26 -75.51,173.67 -154.78,173.67 -120.79,0 -192.53,-101.93 -241.61,-211.43 -75.51,-147.21 -169.87,-335.98 -400.16,-335.98 -128.35,0 -328.41,86.84 -328.41,328.45 0,294.46 256.71,713.48 924.9,713.48 358.6,0 951.29,-132.12 951.29,-830.5 0,-528.51 -351.07,-724.81 -687.05,-913.57 -358.64,-207.63 -441.67,-256.71 -441.67,-422.82 0,-113.26 56.61,-188.77 147.21,-188.77 120.83,0 192.53,120.83 249.18,215.19 71.7,132.12 135.88,241.61 324.65,241.61 188.73,0 328.41,-128.35 328.41,-309.56 0,-162.34 -169.87,-592.69 -883.35,-592.69 -479.47,0 -883.39,241.61 -883.39,804.08 0,351.11 196.3,596.49 490.76,777.69l211.43 128.35z"/>
  <g id="_763002544">
   <path class="fil0" d="M55985.53 8086.09c-3.76,109.5 -11.33,237.85 -154.78,237.85 -139.68,0 -403.92,-124.59 -403.92,-921.14 0,-351.07 64.18,-641.77 143.45,-754.99 52.85,-75.51 128.35,-113.26 222.72,-113.26 135.92,0 185,79.27 290.7,268.04 45.28,67.94 113.26,169.87 294.46,169.87 200.06,0 332.22,-135.92 332.22,-309.56 0,-162.34 -166.11,-596.45 -887.15,-596.45 -849.4,0 -1242.03,668.16 -1242.03,1430.75 0,453 135.92,1068.35 705.95,1291.07 132.12,52.85 294.46,83.03 517.18,83.03 294.46,0 604.02,-71.7 811.64,-279.33 90.6,-94.4 94.4,-158.58 94.4,-241.61l0 -966.42c0,-75.51 -11.33,-113.26 -101.93,-113.26l-826.78 0c-83.03,0 -105.69,18.9 -109.46,94.36l0 286.93c3.76,83.03 26.42,101.93 113.26,101.93l200.06 0 0 332.18zm-2997.39 -1846.01c-45.32,-79.27 -79.27,-101.93 -173.67,-101.93l-434.11 0c-86.84,-3.76 -98.17,45.32 -98.17,101.93l0 2468.92c0,79.27 37.75,94.36 109.5,94.36l392.59 0c71.74,0 86.84,-33.99 86.84,-109.46l0 -1328.86 796.55 1336.39c52.85,83.07 67.94,101.93 173.64,101.93l320.89 0c75.51,0 94.36,-26.42 94.36,-101.93l0 -2468.92c0,-86.8 -45.28,-94.36 -109.46,-94.36l-388.83 0c-64.18,0 -98.17,15.09 -98.17,83.07l0 1143.82 -671.96 -1124.96zm-1166.52 -3.76c0,-64.18 -11.33,-101.93 -98.13,-98.17l-607.82 0c-67.94,0 -101.93,11.33 -101.93,98.17l0 2457.59c0,94.36 45.32,109.46 105.73,109.46l596.45 0c37.75,0 105.69,0 105.69,-105.69l0 -2461.35zm-1049.46 434.11c94.36,0 94.36,-64.18 94.36,-105.69l0 -332.22c0,-79.27 -37.75,-94.36 -105.69,-94.36l-1589.3 0c-64.18,0 -109.5,15.09 -109.5,101.93l0 320.89c0,83.03 18.9,109.46 109.5,109.46l392.59 0 0 2008.35c0,98.17 22.66,124.59 117.02,124.59l581.36 0c79.31,0 101.93,-37.75 101.93,-117.02l0 -2015.92 407.72 0zm-2110.28 -445.44c-3.76,-79.27 -41.52,-86.84 -101.93,-86.84l-592.69 0c-41.52,0 -94.36,0 -98.13,90.6l0 2476.45c3.76,83.07 30.19,98.17 101.93,98.17l1268.41 0c52.85,0 98.17,-7.57 98.17,-90.6l0 -373.73c0,-83.03 -45.32,-83.03 -98.17,-83.03l-577.59 0 0 -2031.01zm-1200.47 7.53c0,-86.8 -30.19,-94.36 -113.26,-94.36l-426.58 0c-67.94,0 -94.36,18.9 -94.36,101.93l0 1668.61c0,181.2 -3.76,343.51 -218.96,343.51 -256.71,0 -260.47,-135.88 -260.47,-328.41l0 -1683.7c0,-79.27 -18.9,-101.93 -105.73,-101.93l-607.78 0c-75.51,0 -94.36,30.19 -94.36,94.36l0 1781.87c0,271.8 41.52,400.16 98.17,490.76 109.46,188.77 392.59,366.17 860.69,366.17 520.98,0 800.31,-218.96 894.72,-437.91 60.37,-132.12 64.18,-294.46 67.94,-453l0 -1747.88zm-3329.61 1547.82c33.95,22.62 181.2,109.46 211.39,128.35 151.01,109.46 181.2,200.06 181.2,294.42 0,113.26 -75.51,173.67 -154.78,173.67 -120.79,0 -192.53,-101.93 -241.61,-211.43 -75.51,-147.21 -169.87,-335.98 -400.16,-335.98 -128.35,0 -328.41,86.84 -328.41,328.45 0,294.46 256.71,713.48 924.9,713.48 358.6,0 951.29,-132.12 951.29,-830.5 0,-528.51 -351.07,-724.81 -687.05,-913.57 -358.64,-207.63 -441.67,-256.71 -441.67,-422.82 0,-113.26 56.61,-188.77 147.21,-188.77 120.83,0 192.53,120.83 249.18,215.19 71.7,132.12 135.88,241.61 324.65,241.61 188.73,0 328.41,-128.35 328.41,-309.56 0,-162.34 -169.87,-592.69 -883.35,-592.69 -479.47,0 -883.39,241.61 -883.39,804.08 0,351.11 196.3,596.49 490.76,777.69l211.43 128.35zm-2317.91 -1540.25c-45.32,-79.27 -79.27,-101.93 -173.67,-101.93l-434.11 0c-86.84,-3.76 -98.17,45.32 -98.17,101.93l0 2468.92c0,79.27 37.75,94.36 109.5,94.36l392.59 0c71.74,0 86.84,-33.99 86.84,-109.46l0 -1328.86 796.55 1336.39c52.85,83.07 67.94,101.93 173.64,101.93l320.89 0c75.51,0 94.36,-26.42 94.36,-101.93l0 -2468.92c0,-86.8 -45.28,-94.36 -109.46,-94.36l-388.83 0c-64.18,0 -98.17,15.09 -98.17,83.07l0 1143.82 -671.96 -1124.96zm-1846.01 1174.05c3.76,211.43 -3.76,422.82 -56.61,626.68 -11.33,49.08 -67.98,264.24 -245.38,264.24 -252.94,0 -320.89,-396.35 -320.89,-879.58 0,-736.14 166.11,-834.3 309.56,-834.3 162.31,0 211.39,143.45 234.05,203.86 64.18,200.1 75.51,411.49 79.27,619.11zm811.64 0c-33.99,-879.58 -498.32,-1347.68 -1109.87,-1347.68 -649.34,0 -1140.1,498.28 -1140.1,1393 0,856.92 434.15,1411.86 1117.44,1411.86 588.92,0 1170.28,-430.34 1132.53,-1457.18zm-3016.29 -585.12c64.18,94.36 139.68,143.45 268,143.45 207.66,0 336.02,-135.92 336.02,-309.56 0,-222.72 -249.18,-592.69 -856.96,-592.69 -562.5,0 -1181.61,437.91 -1181.61,1389.24 0,683.29 298.23,1411.86 1185.38,1411.86 596.49,0 849.4,-407.68 849.4,-611.55 0,-132.12 -90.6,-211.43 -196.3,-211.43 -56.61,0 -75.51,11.33 -162.34,83.07 -67.94,52.85 -147.21,117.02 -283.13,117.02 -113.22,0 -245.38,-52.85 -354.84,-192.53 -147.25,-192.53 -196.3,-494.52 -196.3,-830.5 0,-336.02 79.27,-687.09 290.66,-687.09 94.4,0 151.01,64.18 211.43,154.78 33.95,49.08 56.61,90.6 90.6,135.92z"/>
   <path class="fil0" d="M33534.62 8701.44c0,71.74 7.57,101.93 98.17,101.93l600.22 0c71.74,0 101.93,-18.86 101.93,-101.93l0 -2465.12c0,-83.07 -30.19,-98.17 -105.69,-98.17l-600.22 0c-83.07,0 -94.4,37.75 -94.4,101.93l0 943.76 -460.53 0 0 -943.76c0,-90.6 -49.08,-101.93 -109.5,-101.93l-588.92 0c-71.7,3.76 -98.13,33.99 -98.13,101.93l0 2461.35c0,90.6 37.75,101.93 113.26,101.93l581.36 0c75.47,0 101.93,-22.66 101.93,-101.93l0 -1000.41 460.53 0 0 1000.41zm-1502.46 -2031.01c94.36,0 94.36,-64.18 94.36,-105.69l0 -332.22c0,-79.27 -37.75,-94.36 -105.69,-94.36l-1589.3 0c-64.18,0 -109.5,15.09 -109.5,101.93l0 320.89c0,83.03 18.9,109.46 109.5,109.46l392.59 0 0 2008.35c0,98.17 22.66,124.59 117.02,124.59l581.36 0c79.31,0 101.93,-37.75 101.93,-117.02l0 -2015.92 407.72 0zm-2982.3 2038.58c30.19,86.8 64.18,94.36 143.45,94.36l305.79 0c67.94,0 94.36,-18.86 117.02,-105.69l611.55 -2434.93c7.57,-22.66 11.33,-45.32 11.33,-60.41 0,-64.18 -56.61,-64.18 -94.36,-64.18l-430.38 0c-79.27,-3.76 -90.6,30.19 -113.22,113.26l-237.85 1204.23 -324.65 -1223.13c-22.66,-79.27 -37.75,-94.36 -105.69,-94.36l-196.33 0c-60.37,0 -75.47,15.09 -94.36,83.07l-354.84 1234.42 -237.85 -1219.33c-18.86,-98.17 -49.08,-98.17 -132.12,-98.17l-570.03 0c-30.23,0 -98.17,0 -98.17,67.94 0,18.9 3.76,37.75 11.33,56.65l641.77 2446.26c22.62,79.27 52.85,94.36 139.68,94.36l286.9 0c86.84,0 105.69,-15.09 128.35,-98.17l286.9 -1087.21 305.79 1091.01zm-2631.22 -1294.87c3.76,211.43 -3.76,422.82 -56.61,626.68 -11.33,49.08 -67.98,264.24 -245.38,264.24 -252.94,0 -320.89,-396.35 -320.89,-879.58 0,-736.14 166.11,-834.3 309.56,-834.3 162.31,0 211.39,143.45 234.05,203.86 64.18,200.1 75.51,411.49 79.27,619.11zm811.64 0c-33.99,-879.58 -498.32,-1347.68 -1109.87,-1347.68 -649.34,0 -1140.1,498.28 -1140.1,1393 0,856.92 434.15,1411.86 1117.44,1411.86 588.92,0 1170.28,-430.34 1132.53,-1457.18zm-3616.54 -853.16c268.04,-15.09 369.97,109.46 369.97,475.66 0,105.69 0,430.34 -369.97,407.72l0 -883.39zm-777.65 2140.47c0,71.74 18.86,101.93 105.69,101.93l558.7 0c71.74,0 113.26,-11.33 113.26,-105.69l0 -841.87c3.76,-52.85 3.76,-60.37 22.66,-60.37 15.09,0 26.42,18.86 33.95,37.75l400.2 868.25c37.71,86.84 64.18,101.93 162.31,101.93l604.02 0c49.08,0 94.36,-15.09 94.36,-71.74 0,-22.62 -7.53,-41.52 -33.95,-86.8l-573.83 -1030.6c105.69,-60.41 437.91,-249.18 437.91,-702.19 0,-94.36 -11.33,-211.39 -64.18,-332.22 -215.19,-475.62 -819.17,-479.43 -1113.63,-479.43 -256.71,0 -570.07,26.42 -668.2,56.65 -75.51,22.62 -75.51,60.37 -79.27,143.45l0 2400.94zm-1170.28 -615.35c-3.76,109.5 -11.33,237.85 -154.78,237.85 -139.68,0 -403.92,-124.59 -403.92,-921.14 0,-351.07 64.18,-641.77 143.45,-754.99 52.85,-75.51 128.35,-113.26 222.72,-113.26 135.92,0 185,79.27 290.7,268.04 45.28,67.94 113.26,169.87 294.46,169.87 200.06,0 332.22,-135.92 332.22,-309.56 0,-162.34 -166.11,-596.45 -887.15,-596.45 -849.4,0 -1242.03,668.16 -1242.03,1430.75 0,453 135.92,1068.35 705.95,1291.07 132.12,52.85 294.46,83.03 517.18,83.03 294.46,0 604.02,-71.7 811.64,-279.33 90.6,-94.4 94.4,-158.58 94.4,-241.61l0 -966.42c0,-75.51 -11.33,-113.26 -101.93,-113.26l-826.78 0c-83.03,0 -105.69,18.9 -109.46,94.36l0 286.93c3.76,83.03 26.42,101.93 113.26,101.93l200.06 0 0 332.18z"/>
  </g>
  <path class="fil1" d="M11058.3 17344.28c203.94,274.91 567.89,584.11 876.79,747.58l17.65 -4262.23c-549.93,169.06 -907.29,452.31 -1555.38,629.74 -1820.86,498.52 -3519.69,143.49 -4992.47,-861.77 -3884.97,-2651.75 -3130.29,-8944.41 1624.72,-10439.3 1976.53,-621.32 5882.73,-101.39 8205.64,-291.51 -477.56,-766.28 -2232.31,-1908.2 -3473.68,-2344.37 -8213.86,-2885.84 -15667.41,6790.79 -9468.38,14165.07 1673.11,1990.31 4650.17,3063.82 7364.89,2833.61 479.35,-40.66 920.6,-191.87 1400.22,-176.82z"/>
  <path class="fil0" d="M11435.06 10672.19l-2640.96 -9.82c0.5,-1523.1 -109.3,-2601.39 1587.78,-2606.78 1427.03,-4.58 2885.1,-22.27 4309.34,5.7l11.87 7170.73c968.17,-524.75 2258.69,-2901.01 2606.24,-4302.74 246.27,-993.23 324.69,-2064.18 206.15,-3127.3 -40.82,-366.13 -282.71,-1130.24 -165.6,-1369.02 178.37,-363.76 599.13,-553.03 772.1,-931.85 -2121.61,-96.42 -4458.57,-8.03 -6604.08,-8.03 -2223.73,0 -4190.72,-322.52 -5337.76,1269.73 -1812.4,2515.75 351.15,5812.88 3236.64,5252.87 829.8,-161.02 1859.74,-789.1 2018.28,-1343.49z"/>
 </g>
</svg>
